<svg width="568" height="91" viewBox="0 0 568 91" fill="none" xmlns="http://www.w3.org/2000/svg">
<path d="M403.16 39.3892C402.142 40.3392 400.943 41.0857 399.586 41.6512C398.229 42.2167 396.894 42.6238 395.582 42.9179C394.27 43.212 393.072 43.3703 391.963 43.4382C390.878 43.506 390.109 43.5286 389.656 43.5286V31.6758C390.063 31.6758 390.878 31.5627 392.054 31.3138C393.253 31.065 394.587 30.6352 396.103 30.0245C397.595 29.4138 399.156 28.5542 400.762 27.4911C402.368 26.4279 403.793 25.0933 405.014 23.4873H417.975V66.6915H403.16V39.3892ZM463.732 50.6313C462.421 50.7896 460.95 50.9706 459.344 51.1968C457.738 51.4004 456.2 51.6492 454.708 51.9659C453.215 52.2826 451.925 52.6671 450.817 53.1647C449.709 53.6624 449.008 54.2957 448.714 55.0874L484.27 55.0874V66.6915L427.678 66.6915V65.8998C427.678 62.3258 428.266 59.2269 429.465 56.6482C430.664 54.0469 432.225 51.8528 434.147 50.0206C436.092 48.1883 438.286 46.6954 440.774 45.5418C443.262 44.3882 445.796 43.4608 448.374 42.7369C450.953 42.0131 453.486 41.4476 455.974 41.0404C458.462 40.6333 460.679 40.2487 462.601 39.9321C464.524 39.5928 466.107 39.2761 467.284 38.9368C468.482 38.5975 469.07 38.1451 469.07 37.5117C469.07 36.9462 468.957 36.4938 468.731 36.1545C468.505 35.8152 468.007 35.589 467.216 35.4533C466.424 35.3176 465.293 35.2271 463.8 35.1819C462.307 35.1366 460.294 35.114 457.784 35.114H450.568C449.324 35.114 448.306 35.1592 447.515 35.2723C446.723 35.3854 446.045 35.5664 445.547 35.8378C445.027 36.1093 444.642 36.4486 444.371 36.8784C444.099 37.3081 443.918 37.8284 443.783 38.4618H429.035C429.375 36.1093 429.872 34.0056 430.551 32.1734C431.229 30.3186 432.247 28.7578 433.582 27.4911C434.916 26.2243 436.68 25.2291 438.852 24.5505C441.023 23.8719 443.805 23.5326 447.176 23.5326H463.71C466.628 23.5326 469.161 23.7361 471.31 24.1433C473.458 24.5505 475.268 25.116 476.738 25.8172C478.231 26.5184 479.43 27.3327 480.38 28.2828C481.33 29.2328 482.054 30.2281 482.574 31.2686C483.094 32.3091 483.433 33.4175 483.614 34.5485C483.795 35.6795 483.886 36.7653 483.886 37.7832C483.886 39.0499 483.659 40.3392 483.207 41.6059C482.755 42.8727 481.805 44.0941 480.357 45.2477C478.91 46.4014 476.874 47.4419 474.205 48.3919C471.604 49.2967 468.098 50.0658 463.732 50.6313ZM508.223 67.3022C504.65 67.3022 501.664 66.8951 499.266 66.0581C496.869 65.2438 494.946 64.0902 493.499 62.6425C492.028 61.1722 490.988 59.4757 490.309 57.5078C489.653 55.5625 489.269 53.4588 489.133 51.242H503.451C503.564 51.9885 503.79 52.6219 504.107 53.1874C504.423 53.7529 504.876 54.2053 505.486 54.5672C506.097 54.9291 506.911 55.2232 507.884 55.4267C508.879 55.6303 510.101 55.7434 511.594 55.7434H526.771C528.535 55.7434 529.711 55.4946 530.254 54.9743C530.819 54.4541 531.091 53.7755 531.091 52.9159C531.091 52.1016 530.819 51.423 530.254 50.9027C529.688 50.3825 528.535 50.1337 526.771 50.1337L509.422 50.1337V39.8868L525.73 39.8868C527.494 39.8868 528.671 39.6606 529.213 39.2082C529.779 38.7558 530.05 38.0998 530.05 37.2403C530.05 36.426 529.779 35.7474 529.213 35.2271C528.648 34.7068 527.494 34.458 525.73 34.458H511.594C510.101 34.458 508.925 34.5485 508.042 34.7068C507.16 34.8652 506.482 35.114 506.029 35.4533C505.577 35.7926 505.238 36.1771 505.034 36.6295C504.831 37.0819 504.672 37.6248 504.536 38.2356H489.902C490.106 36.1319 490.536 34.1413 491.169 32.2865C491.802 30.409 492.82 28.7804 494.2 27.378C495.579 25.9755 497.389 24.8672 499.673 24.0755C501.935 23.2838 504.785 22.8766 508.201 22.8766L530.729 22.8766C535.253 22.8766 538.691 23.8945 540.998 25.9529C543.305 28.0113 544.481 30.7936 544.481 34.2771C544.481 35.2271 544.323 36.1998 544.029 37.1724C543.712 38.1677 543.305 39.0951 542.762 39.9773C542.219 40.8595 541.586 41.6512 540.839 42.3298C540.093 43.0084 539.324 43.5286 538.487 43.9132C539.889 44.2751 541.043 44.8858 541.948 45.7454C542.852 46.5823 543.554 47.5324 544.074 48.5503C544.594 49.5908 544.933 50.6313 545.114 51.7397C545.295 52.8254 545.386 53.7755 545.386 54.5446C545.386 55.9018 545.137 57.3268 544.617 58.7971C544.097 60.29 543.214 61.6472 541.925 62.9366C540.659 64.2033 538.939 65.2664 536.791 66.0808C534.642 66.8951 531.973 67.3249 528.761 67.3249H508.223V67.3022Z" fill="white"/>
<path d="M61.8292 35.2102L61.8292 66.6972H47.014L47.014 35.2102H23.4453L23.4453 23.4704L85.3526 23.4704V35.2102L61.8292 35.2102ZM351.936 23.4704L320.338 43.1045L354.899 66.6972H330.833L304.595 48.7369V66.6972H289.78V23.493L304.595 23.493V37.9924L327.938 23.493L351.936 23.493V23.4704ZM287.292 66.6972H270.441L266.234 60.2052H233.754L229.615 66.6972H212.764L240.607 23.493L259.426 23.493L287.292 66.6972ZM240.879 49.0988L259.154 49.0988L250.017 34.8935L240.879 49.0988ZM151.241 66.6972H134.39L130.183 60.2052H97.7024L93.5632 66.6972L76.7123 66.6972L104.556 23.493L123.375 23.493L151.241 66.6972ZM104.805 49.0988H123.081L113.943 34.8935L104.805 49.0988Z" fill="white"/>
<path d="M168.946 38.4388C179.097 38.4548 189.248 38.4592 199.4 38.4519C202.236 38.449 204.911 39.0108 207.425 40.1372C208.896 40.7971 210.124 41.5624 211.11 42.433C212.953 44.058 214.118 46.0922 214.607 48.5355C214.955 50.2826 215.056 52.1583 214.91 54.1627C214.785 55.8618 214.505 57.2833 214.07 58.4272C213.176 60.7761 211.599 62.6453 209.337 64.0348C207.849 64.9505 206.258 65.63 204.565 66.0733C203.004 66.4818 201.101 66.6882 198.855 66.6925C183.921 66.7245 168.963 66.7405 153.98 66.7405C153.942 66.7405 153.905 66.7253 153.878 66.6984C153.851 66.6714 153.836 66.6348 153.836 66.5966V23.6394C153.836 23.607 153.849 23.5759 153.872 23.553C153.895 23.5301 153.926 23.5173 153.958 23.5173L210.148 23.5303C210.189 23.5303 210.228 23.5466 210.256 23.5757C210.285 23.6047 210.301 23.6441 210.301 23.6851V34.4969C210.301 34.5339 210.286 34.5694 210.26 34.5956C210.234 34.6218 210.198 34.6365 210.161 34.6365L169.029 34.6757C169 34.6763 168.972 34.6882 168.951 34.7089C168.93 34.7296 168.919 34.7576 168.918 34.7869L168.839 38.332C168.839 38.3459 168.842 38.3597 168.847 38.3727C168.852 38.3856 168.86 38.3974 168.87 38.4074C168.88 38.4173 168.892 38.4252 168.905 38.4306C168.918 38.436 168.932 38.4388 168.946 38.4388ZM200.013 54.0537C200.543 53.3342 200.706 52.5442 200.501 51.6838C200.286 50.7768 199.737 50.1816 198.855 49.8982C198.079 49.6482 197.079 49.5333 195.855 49.5537C195.146 49.5653 194.784 49.5711 194.768 49.5711C186.197 49.5769 177.62 49.5726 169.038 49.558C168.996 49.558 168.955 49.5746 168.925 49.604C168.895 49.6335 168.879 49.6734 168.879 49.715V55.0086C168.879 55.041 168.892 55.0721 168.914 55.095C168.937 55.1179 168.968 55.1307 169.001 55.1307C178.33 55.1307 187.61 55.13 196.839 55.1285C197.549 55.1285 198.246 55.029 198.927 54.8299C199.363 54.7034 199.725 54.4447 200.013 54.0537Z" fill="white"/>
<path fill-rule="evenodd" clip-rule="evenodd" d="M568 90.1406H562.142L5.85824 90.1406H0L0 84.2821L0 5.85858L0 0L5.85824 0L562.142 0L568 0V5.85858V84.2821V90.1406ZM5.85824 5.85858L5.85824 84.2821L562.142 84.2821V5.85858L5.85824 5.85858Z" fill="white"/>
</svg>
